<?xml version="1.0" encoding="iso-8859-1"?>
<!-- Generator: Adobe Illustrator 19.0.0, SVG Export Plug-In . SVG Version: 6.00 Build 0)  -->
<svg xmlns="http://www.w3.org/2000/svg" xmlns:xlink="http://www.w3.org/1999/xlink" version="1.1" id="Layer_1" x="0px" y="0px" viewBox="0 0 482.167 482.167" style="enable-background:new 0 0 482.167 482.167;" xml:space="preserve">
<path style="fill:#E56353;" d="M199.566,357.333c-64.4,0-116.2-52.5-116.2-116.3s52.4-116.3,116.3-116.3c30.7,0,58.4,12,79.5,31.3  v-18.7v-0.6v-50c-10.2-5.4-21.1-9.6-32.5-12.6l-7.2-34.9c-1.2-5.4-6-9.6-12-9.6h-55.4c-6,0-10.8,4.2-12,9.6l-7.2,34.9  c-28.3,7.8-54.2,22.9-74.7,43.4l-33.7-12c-5.4-1.8-11.4,0.6-14.5,5.4l-27.7,48.2c-3,4.8-1.8,11.4,2.4,15.1l26.5,23.5  c-3.6,13.9-5.4,28.3-5.4,43.4c0,15.1,1.8,29.5,5.4,43.4l-27.1,23.5c-4.2,3.6-5.4,10.2-2.4,15.1l27.5,48c3.6,5.4,9.6,7.2,15.1,5.4  l34.3-11.4c20.5,19.9,46.4,34.9,74.7,43.4l7.2,34.9c1.2,5.4,6,9.6,12,9.6h55.4c6,0,10.8-4.2,12-9.6l7.2-34.9  c11.4-3,22.3-7.2,32.5-12.6v-51.4v-18.5C258.666,345.233,230.366,357.333,199.566,357.333z"/>
<g>
	<path style="fill:#D15241;" d="M279.066,325.933c-21.1,19.3-48.8,31.3-79.5,31.3c-64.4,0.1-116.2-52.4-116.2-116.2   s52.4-116.3,116.3-116.3c30.7,0,58.4,12,79.5,31.3v-19.3c-22.3-16.9-49.4-27.1-79.5-27.1c-72.3,0-130.7,59-130.7,130.7   s59,130.7,130.7,130.7c30.1,0,57.2-10.2,79.5-27.1v-18H279.066z"/>
	<circle style="fill:#D15241;" cx="199.566" cy="241.033" r="62"/>
</g>
<rect x="433.366" y="58.533" style="fill:#3EA69B;" width="28.9" height="368.8"/>
<polygon style="fill:#44C4A1;" points="413.466,58.533 436.366,58.533 436.366,427.333 413.466,422.333 "/>
<polygon style="fill:#31978C;" points="459.266,58.533 482.066,58.533 482.066,422.333 459.266,427.333 "/>
<rect x="434.666" y="0.133" style="fill:#E1E6E9;" width="26.3" height="50.6"/>
<path style="fill:#EBF0F3;" d="M420.666,0.133h15.7v50.6h-22.9v-43.4C413.466,3.133,417.066,0.133,420.666,0.133z"/>
<path style="fill:#D5D6DB;" d="M459.266,0.133h15.7c4.2,0,7.2,3,7.2,7.2v43.4h-22.9L459.266,0.133L459.266,0.133z"/>
<rect x="413.466" y="50.133" style="fill:#E56353;" width="68.7" height="9"/>
<path style="fill:#FCD462;" d="M482.066,422.333l-21.1,38.2c-3.7,2.7-7.8,4.2-13.3,4.2c-5.4,0-8.9-1.3-13.3-4.2l-21.1-38.2H482.066z  "/>
<path style="fill:#64798A;" d="M447.766,454.433c5.4,0,9.6,3,13.3,6l-10.2,18.1c-1.2,2.4-4.8,2.4-6,0l-10.2-18.1  C438.166,457.433,442.366,454.433,447.766,454.433z"/>
<rect x="275.466" y="0.133" style="fill:#FCD462;" width="107.8" height="481.9"/>
<rect x="317.066" y="0.133" style="fill:#F6C358;" width="23.5" height="481.9"/>
<g>
	<rect x="367.066" y="16.933" style="fill:#DC8744;" width="16.3" height="4.2"/>
	<rect x="367.066" y="27.233" style="fill:#DC8744;" width="16.3" height="4.2"/>
	<rect x="367.066" y="37.433" style="fill:#DC8744;" width="16.3" height="4.2"/>
	<rect x="358.666" y="47.633" style="fill:#DC8744;" width="24.7" height="4.2"/>
	<rect x="367.066" y="57.933" style="fill:#DC8744;" width="16.3" height="4.2"/>
	<rect x="367.066" y="68.133" style="fill:#DC8744;" width="16.3" height="4.2"/>
	<rect x="367.066" y="79.033" style="fill:#DC8744;" width="16.3" height="4.2"/>
	<rect x="358.666" y="89.233" style="fill:#DC8744;" width="24.7" height="4.2"/>
	<rect x="367.066" y="99.433" style="fill:#DC8744;" width="16.3" height="4.2"/>
	<rect x="367.066" y="109.733" style="fill:#DC8744;" width="16.3" height="4.2"/>
	<rect x="367.066" y="119.933" style="fill:#DC8744;" width="16.3" height="4.2"/>
	<rect x="358.666" y="130.233" style="fill:#DC8744;" width="24.7" height="4.2"/>
	<rect x="367.066" y="140.433" style="fill:#DC8744;" width="16.3" height="4.2"/>
	<rect x="367.066" y="151.233" style="fill:#DC8744;" width="16.3" height="4.2"/>
	<rect x="367.066" y="161.533" style="fill:#DC8744;" width="16.3" height="4.2"/>
	<rect x="358.666" y="171.733" style="fill:#DC8744;" width="24.7" height="4.2"/>
	<rect x="367.066" y="182.033" style="fill:#DC8744;" width="16.3" height="4.2"/>
	<rect x="367.066" y="192.233" style="fill:#DC8744;" width="16.3" height="4.2"/>
	<rect x="367.066" y="202.433" style="fill:#DC8744;" width="16.3" height="4.2"/>
	<rect x="358.666" y="212.733" style="fill:#DC8744;" width="24.7" height="4.2"/>
	<rect x="367.066" y="223.533" style="fill:#DC8744;" width="16.3" height="4.2"/>
	<rect x="367.066" y="233.833" style="fill:#DC8744;" width="16.3" height="4.2"/>
	<rect x="367.066" y="244.033" style="fill:#DC8744;" width="16.3" height="4.2"/>
	<rect x="358.666" y="254.333" style="fill:#DC8744;" width="24.7" height="4.2"/>
	<rect x="367.066" y="264.533" style="fill:#DC8744;" width="16.3" height="4.2"/>
	<rect x="367.066" y="274.733" style="fill:#DC8744;" width="16.3" height="4.2"/>
	<rect x="367.066" y="285.033" style="fill:#DC8744;" width="16.3" height="4.2"/>
	<rect x="358.666" y="295.833" style="fill:#DC8744;" width="24.7" height="4.2"/>
	<rect x="367.066" y="306.133" style="fill:#DC8744;" width="16.3" height="4.2"/>
	<rect x="367.066" y="316.333" style="fill:#DC8744;" width="16.3" height="4.2"/>
	<rect x="367.066" y="326.533" style="fill:#DC8744;" width="16.3" height="4.2"/>
	<rect x="358.666" y="336.833" style="fill:#DC8744;" width="24.7" height="4.2"/>
	<rect x="367.066" y="347.033" style="fill:#DC8744;" width="16.3" height="4.2"/>
	<rect x="367.066" y="357.333" style="fill:#DC8744;" width="16.3" height="4.2"/>
	<rect x="367.066" y="367.533" style="fill:#DC8744;" width="16.3" height="4.2"/>
	<rect x="358.666" y="378.333" style="fill:#DC8744;" width="24.7" height="4.2"/>
	<rect x="367.066" y="388.633" style="fill:#DC8744;" width="16.3" height="4.2"/>
	<rect x="367.066" y="398.833" style="fill:#DC8744;" width="16.3" height="4.2"/>
	<rect x="367.066" y="409.133" style="fill:#DC8744;" width="16.3" height="4.2"/>
	<rect x="358.666" y="419.333" style="fill:#DC8744;" width="24.7" height="4.2"/>
	<rect x="367.066" y="429.533" style="fill:#DC8744;" width="16.3" height="4.2"/>
	<rect x="367.066" y="439.833" style="fill:#DC8744;" width="16.3" height="4.2"/>
	<rect x="367.066" y="450.633" style="fill:#DC8744;" width="16.3" height="4.2"/>
	<rect x="358.666" y="460.933" style="fill:#DC8744;" width="24.7" height="4.2"/>
</g>
<g>
</g>
<g>
</g>
<g>
</g>
<g>
</g>
<g>
</g>
<g>
</g>
<g>
</g>
<g>
</g>
<g>
</g>
<g>
</g>
<g>
</g>
<g>
</g>
<g>
</g>
<g>
</g>
<g>
</g>
</svg>
